<svg  viewBox="0 0 35 36" fill="none" xmlns="http://www.w3.org/2000/svg">
<path d="M17.499 28.0711C24.9451 28.0711 31.4579 30.675 35 34.56L31.2546 36C28.3713 33.2226 23.2879 31.3776 17.499 31.3776C11.71 31.3776 6.62668 33.2226 3.74339 36L0 34.5584C3.54209 30.6733 10.0529 28.0711 17.499 28.0711ZM17.499 0C20.1954 0 22.7813 0.870894 24.6879 2.42109C26.5946 3.9713 27.6657 6.07382 27.6657 8.26613V16.4985C27.6656 18.6287 26.654 20.6765 24.8421 22.215C23.0301 23.7535 20.5576 24.664 17.9402 24.7564L17.499 24.7647C14.8026 24.7647 12.2166 23.8938 10.31 22.3436C8.40338 20.7934 7.33225 18.6909 7.33225 16.4985V8.26613C7.3324 6.13601 8.34392 4.08816 10.1559 2.54964C11.9678 1.01112 14.4403 0.100714 17.0577 0.00826628L17.499 0ZM17.499 3.30645C15.943 3.30638 14.4459 3.78973 13.3138 4.65761C12.1818 5.52548 11.5004 6.71228 11.4091 7.97517L11.3989 8.26613V16.4985C11.3974 17.7896 12.0151 19.0302 13.1207 19.9568C14.2264 20.8834 15.7328 21.423 17.32 21.4609C18.9071 21.4988 20.4499 21.032 21.6205 20.1597C22.7911 19.2874 23.4972 18.0784 23.5889 16.7895L23.599 16.4985V8.26613C23.599 6.95074 22.9563 5.68923 21.8124 4.75911C20.6684 3.82899 19.1168 3.30645 17.499 3.30645Z" fill="#AEAEB3"/>
</svg>
